<?xml version="1.0" standalone="no"?>
<!DOCTYPE svg PUBLIC "-//W3C//DTD SVG 20010904//EN"
 "http://www.w3.org/TR/2001/REC-SVG-20010904/DTD/svg10.dtd">
<svg version="1.0" xmlns="http://www.w3.org/2000/svg"
 width="500.000000pt" height="500.000000pt" viewBox="0 0 500.000000 500.000000"
 preserveAspectRatio="xMidYMid meet">

<g transform="translate(0.000000,500.000000) scale(0.100000,-0.100000)"
fill="#EFDBB2" stroke="none">
<path d="M316 3704 c-74 -23 -159 -113 -182 -189 -21 -74 -15 -155 17 -218 13
-25 130 -171 259 -324 129 -152 372 -440 539 -638 291 -345 517 -612 683 -809
l77 -91 1 -267 0 -268 850 0 850 0 0 268 0 267 206 245 c114 135 262 310 329
390 68 80 190 224 272 321 587 694 721 856 746 900 107 184 -40 429 -257 429
-68 0 -139 -26 -188 -70 -25 -22 -187 -207 -360 -412 -173 -205 -386 -458
-473 -562 -88 -104 -212 -250 -275 -325 -384 -456 -372 -443 -399 -436 -279
72 -623 72 -902 0 -25 -6 -44 14 -300 317 -296 351 -518 613 -728 863 -74 88
-171 203 -216 255 -44 52 -105 124 -135 160 -93 112 -133 151 -185 177 -63 33
-159 40 -229 17z"/>
<path d="M2402 3490 c-196 -52 -350 -177 -432 -351 -44 -96 -60 -171 -60 -284
0 -165 47 -297 148 -418 127 -151 295 -230 497 -231 121 -1 183 13 295 66 119
57 230 167 288 288 54 111 72 184 72 295 0 157 -43 281 -139 406 -152 197
-430 291 -669 229z"/>
</g>
</svg>
