<?xml version="1.0" standalone="no"?>
<!DOCTYPE svg PUBLIC "-//W3C//DTD SVG 20010904//EN"
 "http://www.w3.org/TR/2001/REC-SVG-20010904/DTD/svg10.dtd">
<svg version="1.0" xmlns="http://www.w3.org/2000/svg"
 width="147.000000pt" height="187.000000pt" viewBox="0 0 147.000000 187.000000"
 preserveAspectRatio="xMidYMid meet">

<g transform="translate(0.000000,187.000000) scale(0.100000,-0.100000)"
fill="#653165" stroke="none">
<path d="M375 1786 c-16 -37 -44 -75 -80 -108 -32 -30 -65 -73 -80 -104 -14
-30 -30 -54 -35 -54 -5 0 -16 10 -25 23 -13 19 -17 20 -25 7 -5 -8 -10 -19
-10 -25 0 -5 -14 -18 -30 -27 -28 -16 -30 -21 -30 -73 0 -49 -2 -55 -21 -55
-16 0 -20 -5 -17 -27 2 -19 14 -32 44 -48 22 -12 63 -38 89 -59 31 -23 55 -34
64 -30 39 16 47 14 63 -16 10 -17 32 -38 50 -46 72 -34 89 -47 108 -83 10 -21
67 -86 125 -143 67 -68 105 -113 105 -127 0 -11 5 -21 10 -21 6 0 10 15 10 34
0 19 4 37 9 40 8 5 20 -19 55 -106 8 -21 21 -38 29 -38 17 0 57 -42 57 -60 0
-43 178 -270 264 -336 25 -19 46 -39 46 -44 0 -4 19 -32 43 -60 23 -29 58 -79
77 -113 44 -77 60 -83 60 -24 0 57 10 107 21 107 5 0 9 -14 9 -30 0 -33 25
-90 39 -90 5 0 16 20 24 44 17 49 13 113 -9 163 -8 17 -14 42 -14 55 0 32 -11
45 -40 49 -19 3 -26 13 -35 44 -13 52 -22 65 -46 65 -18 0 -19 8 -19 101 0
102 -6 126 -43 167 -25 27 -42 28 -74 2 -41 -32 -69 -26 -98 20 -14 23 -30 53
-36 67 -16 42 -99 175 -132 210 -21 23 -31 45 -35 80 -3 26 -11 58 -19 70 -18
28 -12 38 38 63 21 11 39 25 39 30 0 5 -21 37 -46 71 -35 46 -59 66 -99 83
-28 13 -68 39 -88 57 -19 19 -49 46 -67 61 l-32 27 7 88 7 88 -33 25 c-19 14
-52 30 -74 36 -22 6 -48 15 -58 19 -14 6 -22 -3 -42 -49z"/>
</g>
</svg>
